<?xml version="1.0" standalone="no"?>
<!DOCTYPE svg PUBLIC "-//W3C//DTD SVG 20010904//EN"
 "http://www.w3.org/TR/2001/REC-SVG-20010904/DTD/svg10.dtd">
<svg version="1.0" xmlns="http://www.w3.org/2000/svg"
 width="512.000000pt" height="512.000000pt" viewBox="0 0 512.000000 512.000000"
 preserveAspectRatio="xMidYMid meet">

<g transform="translate(0.000000,512.000000) scale(0.100000,-0.100000)"
fill="#fff" stroke="none">
<path d="M2454 4072 c-125 -105 -282 -241 -384 -333 -47 -41 -146 -129 -220
-194 -74 -65 -237 -210 -362 -322 l-228 -205 0 -467 c0 -405 2 -469 15 -489 9
-12 61 -61 116 -109 55 -49 133 -117 173 -153 253 -225 424 -373 671 -585 154
-132 286 -245 293 -252 7 -7 16 -13 20 -13 4 0 55 40 113 88 59 48 153 125
210 172 57 46 106 87 109 90 3 3 48 41 100 85 52 44 97 82 100 85 3 3 30 26
60 50 31 25 152 128 269 230 117 102 228 196 245 209 17 13 48 40 69 60 l37
35 0 476 0 475 -153 136 c-407 363 -845 748 -973 855 -39 32 -95 80 -126 107
-30 26 -57 47 -59 47 -2 -1 -45 -35 -95 -78z m187 -425 c105 -88 346 -294 662
-565 l237 -204 0 -369 0 -370 -27 -25 c-44 -39 -842 -705 -902 -752 -30 -24
-57 -41 -62 -40 -4 2 -85 68 -180 148 -95 80 -249 210 -343 289 -94 79 -233
198 -308 263 l-138 119 0 379 0 380 143 119 c78 65 295 250 482 409 187 160
342 291 345 291 3 1 44 -32 91 -72z"/>
<path d="M2133 3183 l-403 -346 0 -323 0 -323 193 -163 c106 -90 228 -192 271
-228 43 -36 137 -114 207 -173 71 -60 137 -110 148 -112 13 -2 116 77 329 253
170 141 355 294 411 340 l101 82 -2 317 -3 317 -150 129 c-464 400 -676 577
-687 576 -7 0 -194 -156 -415 -346z m575 -135 c86 -73 210 -177 274 -232 l118
-101 0 -92 c0 -51 -3 -93 -8 -93 -4 0 -52 39 -107 87 -386 334 -437 376 -450
367 -8 -5 -86 -70 -174 -144 l-161 -135 0 -127 0 -128 155 0 156 0 -3 -87 -3
-88 -147 -3 -148 -3 0 -89 0 -90 -85 0 -85 0 0 340 0 339 147 118 c80 65 193
157 251 206 57 48 106 87 109 87 2 0 75 -59 161 -132z m217 -427 c64 -29 139
-104 165 -163 46 -105 25 -232 -50 -305 -61 -60 -118 -73 -310 -73 l-170 0 0
273 c0 151 3 277 7 280 3 4 76 7 162 7 130 0 163 -4 196 -19z"/>
<path d="M2730 2355 l0 -115 60 0 c108 0 160 38 160 116 0 77 -54 114 -167
114 l-53 0 0 -115z"/>
</g>
</svg>
